%TF.GenerationSoftware,KiCad,Pcbnew,9.0.1+1*%
%TF.CreationDate,2025-09-19T07:31:43+00:00*%
%TF.ProjectId,ZSWatch-Watch-DevKit,5a535761-7463-4682-9d57-617463682d44,+ (Unreleased)*%
%TF.SameCoordinates,Original*%
%TF.FileFunction,Paste,Top*%
%TF.FilePolarity,Positive*%
%FSLAX46Y46*%
G04 Gerber Fmt 4.6, Leading zero omitted, Abs format (unit mm)*
G04 Created by KiCad (PCBNEW 9.0.1+1) date 2025-09-19 07:31:43*
%MOMM*%
%LPD*%
G01*
G04 APERTURE LIST*
G04 Aperture macros list*
%AMRoundRect*
0 Rectangle with rounded corners*
0 $1 Rounding radius*
0 $2 $3 $4 $5 $6 $7 $8 $9 X,Y pos of 4 corners*
0 Add a 4 corners polygon primitive as box body*
4,1,4,$2,$3,$4,$5,$6,$7,$8,$9,$2,$3,0*
0 Add four circle primitives for the rounded corners*
1,1,$1+$1,$2,$3*
1,1,$1+$1,$4,$5*
1,1,$1+$1,$6,$7*
1,1,$1+$1,$8,$9*
0 Add four rect primitives between the rounded corners*
20,1,$1+$1,$2,$3,$4,$5,0*
20,1,$1+$1,$4,$5,$6,$7,0*
20,1,$1+$1,$6,$7,$8,$9,0*
20,1,$1+$1,$8,$9,$2,$3,0*%
%AMFreePoly0*
4,1,19,0.290204,0.301344,0.321117,0.247801,0.322490,0.232106,0.322490,-0.157228,0.301344,-0.215326,0.296017,-0.221139,0.221139,-0.296017,0.165105,-0.322146,0.157228,-0.322490,-0.232106,-0.322490,-0.290204,-0.301344,-0.321117,-0.247801,-0.322490,-0.232106,-0.322490,0.232106,-0.301344,0.290204,-0.247801,0.321117,-0.232106,0.322490,0.232106,0.322490,0.290204,0.301344,0.290204,0.301344,
$1*%
%AMFreePoly1*
4,1,21,0.231572,0.385173,0.236504,0.380653,0.300030,0.317127,0.322198,0.269587,0.322490,0.262904,0.322490,-0.262904,0.304550,-0.312195,0.300030,-0.317127,0.236504,-0.380653,0.188964,-0.402821,0.182281,-0.403113,-0.245807,-0.403113,-0.295098,-0.385173,-0.321325,-0.339746,-0.322490,-0.326430,-0.322490,0.326430,-0.304550,0.375721,-0.259123,0.401948,-0.245807,0.403113,0.182281,0.403113,
0.231572,0.385173,0.231572,0.385173,$1*%
%AMFreePoly2*
4,1,19,0.215326,0.301344,0.221139,0.296017,0.296017,0.221139,0.322146,0.165105,0.322490,0.157228,0.322490,-0.232106,0.301344,-0.290204,0.247801,-0.321117,0.232106,-0.322490,-0.232106,-0.322490,-0.290204,-0.301344,-0.321117,-0.247801,-0.322490,-0.232106,-0.322490,0.232106,-0.301344,0.290204,-0.247801,0.321117,-0.232106,0.322490,0.157228,0.322490,0.215326,0.301344,0.215326,0.301344,
$1*%
%AMFreePoly3*
4,1,21,0.375721,0.304550,0.401948,0.259123,0.403113,0.245807,0.403113,-0.182281,0.385173,-0.231572,0.380653,-0.236504,0.317127,-0.300030,0.269587,-0.322198,0.262904,-0.322490,-0.262904,-0.322490,-0.312195,-0.304550,-0.317127,-0.300030,-0.380653,-0.236504,-0.402821,-0.188964,-0.403113,-0.182281,-0.403113,0.245807,-0.385173,0.295098,-0.339746,0.321325,-0.326430,0.322490,0.326430,0.322490,
0.375721,0.304550,0.375721,0.304550,$1*%
%AMFreePoly4*
4,1,21,0.312195,0.304550,0.317127,0.300030,0.380653,0.236504,0.402821,0.188964,0.403113,0.182281,0.403113,-0.245807,0.385173,-0.295098,0.339746,-0.321325,0.326430,-0.322490,-0.326430,-0.322490,-0.375721,-0.304550,-0.401948,-0.259123,-0.403113,-0.245807,-0.403113,0.182281,-0.385173,0.231572,-0.380653,0.236504,-0.317127,0.300030,-0.269587,0.322198,-0.262904,0.322490,0.262904,0.322490,
0.312195,0.304550,0.312195,0.304550,$1*%
%AMFreePoly5*
4,1,19,0.290204,0.301344,0.321117,0.247801,0.322490,0.232106,0.322490,-0.232106,0.301344,-0.290204,0.247801,-0.321117,0.232106,-0.322490,-0.157228,-0.322490,-0.215326,-0.301344,-0.221139,-0.296017,-0.296017,-0.221139,-0.322146,-0.165105,-0.322490,-0.157228,-0.322490,0.232106,-0.301344,0.290204,-0.247801,0.321117,-0.232106,0.322490,0.232106,0.322490,0.290204,0.301344,0.290204,0.301344,
$1*%
%AMFreePoly6*
4,1,21,0.295098,0.385173,0.321325,0.339746,0.322490,0.326430,0.322490,-0.326430,0.304550,-0.375721,0.259123,-0.401948,0.245807,-0.403113,-0.182281,-0.403113,-0.231572,-0.385173,-0.236504,-0.380653,-0.300030,-0.317127,-0.322198,-0.269587,-0.322490,-0.262904,-0.322490,0.262904,-0.304550,0.312195,-0.300030,0.317127,-0.236504,0.380653,-0.188964,0.402821,-0.182281,0.403113,0.245807,0.403113,
0.295098,0.385173,0.295098,0.385173,$1*%
%AMFreePoly7*
4,1,19,0.290204,0.301344,0.321117,0.247801,0.322490,0.232106,0.322490,-0.232106,0.301344,-0.290204,0.247801,-0.321117,0.232106,-0.322490,-0.232106,-0.322490,-0.290204,-0.301344,-0.321117,-0.247801,-0.322490,-0.232106,-0.322490,0.157228,-0.301344,0.215326,-0.296017,0.221139,-0.221139,0.296017,-0.165105,0.322146,-0.157228,0.322490,0.232106,0.322490,0.290204,0.301344,0.290204,0.301344,
$1*%
G04 Aperture macros list end*
%ADD10C,0.010000*%
%ADD11RoundRect,0.140000X0.140000X0.170000X-0.140000X0.170000X-0.140000X-0.170000X0.140000X-0.170000X0*%
%ADD12RoundRect,0.250000X-0.262500X-0.450000X0.262500X-0.450000X0.262500X0.450000X-0.262500X0.450000X0*%
%ADD13RoundRect,0.250000X0.262500X0.450000X-0.262500X0.450000X-0.262500X-0.450000X0.262500X-0.450000X0*%
%ADD14RoundRect,0.050000X-0.100000X-0.075000X0.100000X-0.075000X0.100000X0.075000X-0.100000X0.075000X0*%
%ADD15R,0.300000X0.600000*%
%ADD16RoundRect,0.093750X-0.093750X0.156250X-0.093750X-0.156250X0.093750X-0.156250X0.093750X0.156250X0*%
%ADD17RoundRect,0.075000X-0.075000X0.250000X-0.075000X-0.250000X0.075000X-0.250000X0.075000X0.250000X0*%
%ADD18RoundRect,0.135000X0.185000X-0.135000X0.185000X0.135000X-0.185000X0.135000X-0.185000X-0.135000X0*%
%ADD19R,1.500000X1.300000*%
%ADD20RoundRect,0.250000X-0.450000X0.262500X-0.450000X-0.262500X0.450000X-0.262500X0.450000X0.262500X0*%
%ADD21R,2.400000X0.740000*%
%ADD22FreePoly0,0.000000*%
%ADD23FreePoly1,0.000000*%
%ADD24FreePoly2,0.000000*%
%ADD25FreePoly3,0.000000*%
%ADD26RoundRect,0.201557X-0.201556X-0.201556X0.201556X-0.201556X0.201556X0.201556X-0.201556X0.201556X0*%
%ADD27FreePoly4,0.000000*%
%ADD28FreePoly5,0.000000*%
%ADD29FreePoly6,0.000000*%
%ADD30FreePoly7,0.000000*%
%ADD31RoundRect,0.062500X-0.337500X-0.062500X0.337500X-0.062500X0.337500X0.062500X-0.337500X0.062500X0*%
%ADD32RoundRect,0.062500X-0.062500X-0.337500X0.062500X-0.337500X0.062500X0.337500X-0.062500X0.337500X0*%
%ADD33RoundRect,0.150000X0.150000X0.275000X-0.150000X0.275000X-0.150000X-0.275000X0.150000X-0.275000X0*%
%ADD34RoundRect,0.175000X0.175000X0.225000X-0.175000X0.225000X-0.175000X-0.225000X0.175000X-0.225000X0*%
%ADD35RoundRect,0.075000X-0.512500X-0.075000X0.512500X-0.075000X0.512500X0.075000X-0.512500X0.075000X0*%
%ADD36R,0.250000X0.500000*%
%ADD37R,0.500000X0.250000*%
%ADD38RoundRect,0.140000X-0.170000X0.140000X-0.170000X-0.140000X0.170000X-0.140000X0.170000X0.140000X0*%
%ADD39RoundRect,0.135000X0.135000X0.185000X-0.135000X0.185000X-0.135000X-0.185000X0.135000X-0.185000X0*%
%ADD40RoundRect,0.140000X-0.140000X-0.170000X0.140000X-0.170000X0.140000X0.170000X-0.140000X0.170000X0*%
%ADD41RoundRect,0.250000X0.615000X-0.435000X0.615000X0.435000X-0.615000X0.435000X-0.615000X-0.435000X0*%
%ADD42RoundRect,0.125000X0.125000X-0.200000X0.125000X0.200000X-0.125000X0.200000X-0.125000X-0.200000X0*%
%ADD43R,0.650000X0.170000*%
%ADD44RoundRect,0.140000X0.170000X-0.140000X0.170000X0.140000X-0.170000X0.140000X-0.170000X-0.140000X0*%
%ADD45R,0.950000X0.450000*%
%ADD46R,0.700000X0.270000*%
%ADD47R,0.370000X0.300000*%
%ADD48R,0.300000X0.370000*%
%ADD49RoundRect,0.147500X0.147500X0.172500X-0.147500X0.172500X-0.147500X-0.172500X0.147500X-0.172500X0*%
%ADD50R,0.300000X0.700000*%
%ADD51RoundRect,0.225000X-0.250000X0.225000X-0.250000X-0.225000X0.250000X-0.225000X0.250000X0.225000X0*%
%ADD52R,0.475000X0.250000*%
%ADD53R,0.250000X0.475000*%
%ADD54R,1.150000X1.800000*%
%ADD55R,0.600000X0.600000*%
%ADD56RoundRect,0.147500X-0.147500X-0.172500X0.147500X-0.172500X0.147500X0.172500X-0.147500X0.172500X0*%
%ADD57RoundRect,0.225000X0.250000X-0.225000X0.250000X0.225000X-0.250000X0.225000X-0.250000X-0.225000X0*%
%ADD58R,0.300000X0.325000*%
%ADD59R,0.325000X0.300000*%
%ADD60R,1.800000X1.150000*%
%ADD61RoundRect,0.050000X0.100000X0.075000X-0.100000X0.075000X-0.100000X-0.075000X0.100000X-0.075000X0*%
%ADD62RoundRect,0.135000X-0.135000X-0.185000X0.135000X-0.185000X0.135000X0.185000X-0.135000X0.185000X0*%
%ADD63RoundRect,0.150000X0.512500X0.150000X-0.512500X0.150000X-0.512500X-0.150000X0.512500X-0.150000X0*%
%ADD64RoundRect,0.135000X-0.185000X0.135000X-0.185000X-0.135000X0.185000X-0.135000X0.185000X0.135000X0*%
%ADD65R,0.450000X0.210000*%
%ADD66R,0.450000X0.270000*%
%ADD67R,0.450000X0.170000*%
%ADD68R,0.170000X0.450000*%
%ADD69R,0.450000X0.150000*%
G04 APERTURE END LIST*
D10*
%TO.C,MK501*%
X166935000Y-173025000D02*
X166935000Y-174125000D01*
X166835000Y-174225000D01*
X166610000Y-174225000D01*
X166610000Y-172925000D01*
X166835000Y-172925000D01*
X166935000Y-173025000D01*
G36*
X166935000Y-173025000D02*
G01*
X166935000Y-174125000D01*
X166835000Y-174225000D01*
X166610000Y-174225000D01*
X166610000Y-172925000D01*
X166835000Y-172925000D01*
X166935000Y-173025000D01*
G37*
X169635000Y-172425000D02*
X169535000Y-172525000D01*
X167435000Y-172525000D01*
X167335000Y-172425000D01*
X167335000Y-172200000D01*
X169635000Y-172200000D01*
X169635000Y-172425000D01*
G36*
X169635000Y-172425000D02*
G01*
X169535000Y-172525000D01*
X167435000Y-172525000D01*
X167335000Y-172425000D01*
X167335000Y-172200000D01*
X169635000Y-172200000D01*
X169635000Y-172425000D01*
G37*
X169635000Y-174725000D02*
X169635000Y-174950000D01*
X167335000Y-174950000D01*
X167335000Y-174725000D01*
X167435000Y-174625000D01*
X169535000Y-174625000D01*
X169635000Y-174725000D01*
G36*
X169635000Y-174725000D02*
G01*
X169635000Y-174950000D01*
X167335000Y-174950000D01*
X167335000Y-174725000D01*
X167435000Y-174625000D01*
X169535000Y-174625000D01*
X169635000Y-174725000D01*
G37*
X170360000Y-174225000D02*
X170135000Y-174225000D01*
X170035000Y-174125000D01*
X170035000Y-173025000D01*
X170135000Y-172925000D01*
X170360000Y-172925000D01*
X170360000Y-174225000D01*
G36*
X170360000Y-174225000D02*
G01*
X170135000Y-174225000D01*
X170035000Y-174125000D01*
X170035000Y-173025000D01*
X170135000Y-172925000D01*
X170360000Y-172925000D01*
X170360000Y-174225000D01*
G37*
%TD*%
D11*
%TO.C,C410*%
X225060000Y-120200000D03*
X224100000Y-120200000D03*
%TD*%
D12*
%TO.C,R605*%
X250700000Y-126100000D03*
X252525000Y-126100000D03*
%TD*%
D13*
%TO.C,R409*%
X234112500Y-123749000D03*
X232287500Y-123749000D03*
%TD*%
D14*
%TO.C,Q403*%
X253550000Y-171175000D03*
X253550000Y-171625000D03*
D15*
X254250000Y-171400000D03*
%TD*%
D12*
%TO.C,R615*%
X203275000Y-138200000D03*
X205100000Y-138200000D03*
%TD*%
D16*
%TO.C,IC602*%
X247337500Y-126937500D03*
D17*
X246800000Y-126862500D03*
D16*
X246262500Y-126937500D03*
X246262500Y-128637500D03*
D17*
X246800000Y-128712500D03*
D16*
X247337500Y-128637500D03*
%TD*%
D18*
%TO.C,R403*%
X250800000Y-178710000D03*
X250800000Y-177690000D03*
%TD*%
D19*
%TO.C,S503*%
X162025000Y-163750000D03*
X162025000Y-168250000D03*
X169975000Y-163750000D03*
X169975000Y-168250000D03*
%TD*%
%TO.C,S504*%
X162025000Y-117750000D03*
X162025000Y-122250000D03*
X169975000Y-117750000D03*
X169975000Y-122250000D03*
%TD*%
D20*
%TO.C,R613*%
X212500000Y-143687500D03*
X212500000Y-145512500D03*
%TD*%
D21*
%TO.C,X601*%
X251800000Y-160120000D03*
X255700000Y-160120000D03*
X251800000Y-161390000D03*
X255700000Y-161390000D03*
X251800000Y-162660000D03*
X255700000Y-162660000D03*
X251800000Y-163930000D03*
X255700000Y-163930000D03*
X251800000Y-165200000D03*
X255700000Y-165200000D03*
%TD*%
D22*
%TO.C,IC401*%
X223987790Y-122430400D03*
D23*
X223987790Y-123330400D03*
X223987790Y-124330400D03*
D24*
X223987790Y-125230400D03*
D25*
X224887790Y-122430400D03*
D26*
X224887790Y-123330400D03*
X224887790Y-124330400D03*
D27*
X224887790Y-125230400D03*
D25*
X225887790Y-122430400D03*
D26*
X225887790Y-123330400D03*
X225887790Y-124330400D03*
D27*
X225887790Y-125230400D03*
D28*
X226787790Y-122430400D03*
D29*
X226787790Y-123330400D03*
X226787790Y-124330400D03*
D30*
X226787790Y-125230400D03*
D31*
X222937790Y-122080400D03*
X222937790Y-122580400D03*
X222937790Y-123080400D03*
X222937790Y-123580400D03*
X222937790Y-124080400D03*
X222937790Y-124580400D03*
X222937790Y-125080400D03*
X222937790Y-125580400D03*
D32*
X223637790Y-126280400D03*
X224137790Y-126280400D03*
X224637790Y-126280400D03*
X225137790Y-126280400D03*
X225637790Y-126280400D03*
X226137790Y-126280400D03*
X226637790Y-126280400D03*
X227137790Y-126280400D03*
D31*
X227837790Y-125580400D03*
X227837790Y-125080400D03*
X227837790Y-124580400D03*
X227837790Y-124080400D03*
X227837790Y-123580400D03*
X227837790Y-123080400D03*
X227837790Y-122580400D03*
X227837790Y-122080400D03*
D32*
X227137790Y-121380400D03*
X226637790Y-121380400D03*
X226137790Y-121380400D03*
X225637790Y-121380400D03*
X225137790Y-121380400D03*
X224637790Y-121380400D03*
X224137790Y-121380400D03*
X223637790Y-121380400D03*
%TD*%
D33*
%TO.C,X509*%
X208850000Y-118575000D03*
X207650000Y-118575000D03*
D34*
X210000000Y-114800000D03*
X206500000Y-114800000D03*
%TD*%
D35*
%TO.C,IC501*%
X228505000Y-172900000D03*
X228505000Y-173550000D03*
X228505000Y-174200000D03*
X230080000Y-174200000D03*
X230080000Y-173550000D03*
X230080000Y-172900000D03*
%TD*%
D11*
%TO.C,C403*%
X227780000Y-119800000D03*
X226820000Y-119800000D03*
%TD*%
D36*
%TO.C,IC505*%
X207100000Y-123100000D03*
X207600000Y-123100000D03*
X208100000Y-123100000D03*
X208600000Y-123100000D03*
D37*
X208600000Y-122350000D03*
D36*
X208600000Y-121600000D03*
X208100000Y-121600000D03*
X207600000Y-121600000D03*
X207100000Y-121600000D03*
D37*
X207100000Y-122350000D03*
%TD*%
D38*
%TO.C,C505*%
X235500000Y-172795000D03*
X235500000Y-173755000D03*
%TD*%
D39*
%TO.C,R405*%
X256210000Y-170400000D03*
X255190000Y-170400000D03*
%TD*%
D40*
%TO.C,C404*%
X229520000Y-121300000D03*
X230480000Y-121300000D03*
%TD*%
D11*
%TO.C,C511*%
X207580000Y-176220000D03*
X206620000Y-176220000D03*
%TD*%
D41*
%TO.C,IC603*%
X234920000Y-158500000D03*
X237070000Y-158500000D03*
X234920000Y-156800000D03*
X237070000Y-156800000D03*
D42*
X234090000Y-161400000D03*
X235360000Y-161400000D03*
X236630000Y-161400000D03*
X237900000Y-161400000D03*
X237900000Y-153900000D03*
X236630000Y-153900000D03*
X235360000Y-153900000D03*
X234090000Y-153900000D03*
%TD*%
D43*
%TO.C,IC506*%
X210725000Y-174500000D03*
X210725000Y-174150000D03*
X210725000Y-173800000D03*
X210725000Y-173450000D03*
X209875000Y-173450000D03*
X209875000Y-173800000D03*
X209875000Y-174150000D03*
X209875000Y-174500000D03*
%TD*%
D44*
%TO.C,C602*%
X232170000Y-154880000D03*
X232170000Y-153920000D03*
%TD*%
D45*
%TO.C,MK501*%
X167810000Y-173150000D03*
X169160000Y-173150000D03*
X169160000Y-174000000D03*
X167810000Y-174000000D03*
%TD*%
D12*
%TO.C,R410*%
X214587500Y-120900000D03*
X216412500Y-120900000D03*
%TD*%
D13*
%TO.C,R616*%
X201187500Y-138200000D03*
X199362500Y-138200000D03*
%TD*%
D39*
%TO.C,R408*%
X229989410Y-126538400D03*
X228969410Y-126538400D03*
%TD*%
D33*
%TO.C,X402*%
X227800000Y-118575000D03*
X226600000Y-118575000D03*
D34*
X228950000Y-114800000D03*
X225450000Y-114800000D03*
%TD*%
D11*
%TO.C,C503*%
X218500000Y-175332500D03*
X217540000Y-175332500D03*
%TD*%
D46*
%TO.C,IC507*%
X206600000Y-173725000D03*
X206600000Y-174265000D03*
X206600000Y-174805000D03*
X206600000Y-175345000D03*
X207600000Y-175345000D03*
X207600000Y-174805000D03*
X207600000Y-174265000D03*
X207600000Y-173725000D03*
%TD*%
D47*
%TO.C,IC504*%
X244062500Y-174007500D03*
X244062500Y-173507500D03*
D48*
X243800000Y-172995000D03*
X243300000Y-172995000D03*
X242800000Y-172995000D03*
D47*
X242537500Y-173507500D03*
X242537500Y-174007500D03*
D48*
X242800000Y-174520000D03*
X243300000Y-174520000D03*
X243800000Y-174520000D03*
%TD*%
D11*
%TO.C,C510*%
X208280000Y-120700000D03*
X207320000Y-120700000D03*
%TD*%
D49*
%TO.C,D403*%
X256185000Y-178200000D03*
X255215000Y-178200000D03*
%TD*%
D50*
%TO.C,X603*%
X249550000Y-123220000D03*
X249050000Y-123220000D03*
X248550000Y-123220000D03*
X248050000Y-123220000D03*
X247550000Y-123220000D03*
X247050000Y-123220000D03*
X246550000Y-123220000D03*
X246050000Y-123220000D03*
X245550000Y-123220000D03*
X245050000Y-123220000D03*
X244550000Y-123220000D03*
X244050000Y-123220000D03*
X244300000Y-121520000D03*
X244800000Y-121520000D03*
X245300000Y-121520000D03*
X245800000Y-121520000D03*
X246300000Y-121520000D03*
X246800000Y-121520000D03*
X247300000Y-121520000D03*
X247800000Y-121520000D03*
X248300000Y-121520000D03*
X248800000Y-121520000D03*
X249300000Y-121520000D03*
X249800000Y-121520000D03*
%TD*%
D51*
%TO.C,C408*%
X221151410Y-124633400D03*
X221151410Y-126183400D03*
%TD*%
D39*
%TO.C,R404*%
X256210000Y-173900000D03*
X255190000Y-173900000D03*
%TD*%
D44*
%TO.C,C502*%
X165900000Y-174500000D03*
X165900000Y-173540000D03*
%TD*%
D52*
%TO.C,IC502*%
X217937500Y-172800000D03*
X217937500Y-173300000D03*
X217937500Y-173800000D03*
X217937500Y-174300000D03*
D53*
X218600000Y-174462500D03*
X219100000Y-174462500D03*
X219600000Y-174462500D03*
D52*
X220262500Y-174300000D03*
X220262500Y-173800000D03*
X220262500Y-173300000D03*
X220262500Y-172800000D03*
D53*
X219600000Y-172637500D03*
X219100000Y-172637500D03*
X218600000Y-172637500D03*
%TD*%
D20*
%TO.C,R606*%
X239300000Y-117987500D03*
X239300000Y-119812500D03*
%TD*%
D54*
%TO.C,L401*%
X217938410Y-124659400D03*
X219538410Y-124659400D03*
%TD*%
D55*
%TO.C,M601*%
X244100000Y-155150000D03*
X244100000Y-154050000D03*
X244100000Y-152950000D03*
X244100000Y-151850000D03*
X244100000Y-150750000D03*
X244100000Y-149650000D03*
X244100000Y-148550000D03*
X244100000Y-147450000D03*
X244100000Y-146350000D03*
X245200000Y-155150000D03*
X245200000Y-154050000D03*
X245200000Y-152950000D03*
X245200000Y-151850000D03*
X245200000Y-150750000D03*
X245200000Y-149650000D03*
X245200000Y-148550000D03*
X245200000Y-147450000D03*
X245200000Y-146350000D03*
X246300000Y-155150000D03*
X246300000Y-154050000D03*
X246300000Y-151850000D03*
X246300000Y-150750000D03*
X246300000Y-149650000D03*
X246300000Y-147450000D03*
X246300000Y-146350000D03*
X247400000Y-155150000D03*
X247400000Y-154050000D03*
X247400000Y-152950000D03*
X247400000Y-148550000D03*
X247400000Y-147450000D03*
X247400000Y-146350000D03*
X248500000Y-155150000D03*
X248500000Y-154050000D03*
X248500000Y-152950000D03*
X248500000Y-151300000D03*
X248500000Y-150200000D03*
X248500000Y-148550000D03*
X248500000Y-147450000D03*
X248500000Y-146350000D03*
X249600000Y-155150000D03*
X249600000Y-154050000D03*
X249600000Y-152950000D03*
X249600000Y-151300000D03*
X249600000Y-150200000D03*
X249600000Y-148550000D03*
X249600000Y-147450000D03*
X249600000Y-146350000D03*
X250700000Y-155150000D03*
X250700000Y-154050000D03*
X250700000Y-152950000D03*
X250700000Y-151300000D03*
X250700000Y-150200000D03*
X250700000Y-148550000D03*
X250700000Y-147450000D03*
X250700000Y-146350000D03*
X251800000Y-155150000D03*
X251800000Y-154050000D03*
X251800000Y-152950000D03*
X251800000Y-148550000D03*
X251800000Y-147450000D03*
X251800000Y-146350000D03*
X252900000Y-155150000D03*
X252900000Y-154050000D03*
X252900000Y-152950000D03*
X252900000Y-151300000D03*
X252900000Y-150200000D03*
X252900000Y-148550000D03*
X252900000Y-147450000D03*
X252900000Y-146350000D03*
X254000000Y-155150000D03*
X254000000Y-154050000D03*
X254000000Y-152950000D03*
X254000000Y-150750000D03*
X254000000Y-148550000D03*
X254000000Y-147450000D03*
X254000000Y-146350000D03*
X255500000Y-155150000D03*
X255500000Y-146350000D03*
X257000000Y-155150000D03*
X257000000Y-154050000D03*
X257000000Y-147450000D03*
X257000000Y-146350000D03*
%TD*%
D56*
%TO.C,D401*%
X255215000Y-174900000D03*
X256185000Y-174900000D03*
%TD*%
D57*
%TO.C,C406*%
X221151410Y-123148400D03*
X221151410Y-121598400D03*
%TD*%
D11*
%TO.C,C407*%
X222289600Y-119930400D03*
X221329600Y-119930400D03*
%TD*%
D40*
%TO.C,C405*%
X218299410Y-126138400D03*
X219259410Y-126138400D03*
%TD*%
D11*
%TO.C,C501*%
X227187500Y-174200000D03*
X226227500Y-174200000D03*
%TD*%
%TO.C,C504*%
X221180000Y-175300000D03*
X220220000Y-175300000D03*
%TD*%
%TO.C,C601*%
X208980000Y-144187500D03*
X208020000Y-144187500D03*
%TD*%
D58*
%TO.C,IC503*%
X237812500Y-172462500D03*
X237312500Y-172462500D03*
X236812500Y-172462500D03*
X236312500Y-172462500D03*
D59*
X236300000Y-172975000D03*
X236300000Y-173475000D03*
D58*
X236312500Y-173987500D03*
X236812500Y-173987500D03*
X237312500Y-173987500D03*
X237812500Y-173987500D03*
D59*
X237825000Y-173475000D03*
X237825000Y-172975000D03*
%TD*%
D40*
%TO.C,C506*%
X238620000Y-173975000D03*
X239580000Y-173975000D03*
%TD*%
D60*
%TO.C,L402*%
X219246410Y-121319400D03*
X219246410Y-122919400D03*
%TD*%
D57*
%TO.C,C409*%
X229590620Y-124044000D03*
X229590620Y-122494000D03*
%TD*%
D20*
%TO.C,R602*%
X208020000Y-140775000D03*
X208020000Y-142600000D03*
%TD*%
D39*
%TO.C,R402*%
X252710000Y-170800000D03*
X251690000Y-170800000D03*
%TD*%
D19*
%TO.C,S502*%
X187025000Y-163750000D03*
X187025000Y-168250000D03*
X194975000Y-163750000D03*
X194975000Y-168250000D03*
%TD*%
D61*
%TO.C,Q401*%
X252350000Y-177225000D03*
X252350000Y-176775000D03*
D15*
X251650000Y-177000000D03*
%TD*%
D11*
%TO.C,C508*%
X245780000Y-173700000D03*
X244820000Y-173700000D03*
%TD*%
D12*
%TO.C,R411*%
X214587500Y-122900000D03*
X216412500Y-122900000D03*
%TD*%
D62*
%TO.C,R601*%
X201990000Y-145137500D03*
X203010000Y-145137500D03*
%TD*%
D63*
%TO.C,IC601*%
X206637500Y-146087500D03*
X206637500Y-145137500D03*
X206637500Y-144187500D03*
X204362500Y-144187500D03*
X204362500Y-145137500D03*
X204362500Y-146087500D03*
%TD*%
D12*
%TO.C,R412*%
X232087500Y-119800000D03*
X233912500Y-119800000D03*
%TD*%
D64*
%TO.C,R612*%
X232170000Y-160400000D03*
X232170000Y-161420000D03*
%TD*%
D19*
%TO.C,S501*%
X187025000Y-117750000D03*
X187025000Y-122250000D03*
X194975000Y-117750000D03*
X194975000Y-122250000D03*
%TD*%
D44*
%TO.C,C401*%
X231000000Y-123780000D03*
X231000000Y-122820000D03*
%TD*%
D39*
%TO.C,R406*%
X254210000Y-178200000D03*
X253190000Y-178200000D03*
%TD*%
D11*
%TO.C,C604*%
X201555000Y-136700000D03*
X200595000Y-136700000D03*
%TD*%
D65*
%TO.C,X608*%
X172800000Y-144300000D03*
X172800000Y-143900000D03*
X172800000Y-143500000D03*
X172800000Y-143100000D03*
X172800000Y-142700000D03*
X172800000Y-142300000D03*
X172800000Y-141900000D03*
X172800000Y-141500000D03*
X172800000Y-141100000D03*
X172800000Y-140700000D03*
X172800000Y-140300000D03*
X172800000Y-139900000D03*
X170610000Y-139900000D03*
X170610000Y-140300000D03*
X170610000Y-140700000D03*
X170610000Y-141100000D03*
X170610000Y-141500000D03*
X170610000Y-141900000D03*
X170610000Y-142300000D03*
X170610000Y-142700000D03*
X170610000Y-143100000D03*
X170610000Y-143500000D03*
X170610000Y-143900000D03*
X170610000Y-144300000D03*
%TD*%
D56*
%TO.C,D402*%
X255215000Y-171400000D03*
X256185000Y-171400000D03*
%TD*%
D40*
%TO.C,C509*%
X244820000Y-174700000D03*
X245780000Y-174700000D03*
%TD*%
D38*
%TO.C,C402*%
X225137790Y-127420000D03*
X225137790Y-128380000D03*
%TD*%
D66*
%TO.C,IC604*%
X203045000Y-135800000D03*
D67*
X203045000Y-135350000D03*
X203045000Y-134950000D03*
X203045000Y-134550000D03*
X203045000Y-134150000D03*
D68*
X202295000Y-134050000D03*
D69*
X201545000Y-134150000D03*
D67*
X201545000Y-134550000D03*
X201545000Y-134950000D03*
X201545000Y-135350000D03*
X201545000Y-135750000D03*
D68*
X202295000Y-135850000D03*
%TD*%
D39*
%TO.C,R407*%
X229989410Y-125580400D03*
X228969410Y-125580400D03*
%TD*%
D14*
%TO.C,Q404*%
X251650000Y-177975000D03*
X251650000Y-178425000D03*
D15*
X252350000Y-178200000D03*
%TD*%
D11*
%TO.C,C507*%
X237580000Y-174775000D03*
X236620000Y-174775000D03*
%TD*%
D39*
%TO.C,R401*%
X252710000Y-174300000D03*
X251690000Y-174300000D03*
%TD*%
D14*
%TO.C,Q402*%
X253550000Y-174675000D03*
X253550000Y-175125000D03*
D15*
X254250000Y-174900000D03*
%TD*%
D62*
%TO.C,R502*%
X209890000Y-175200000D03*
X210910000Y-175200000D03*
%TD*%
D19*
%TO.C,S601*%
X243275000Y-137950000D03*
X243275000Y-133450000D03*
X235325000Y-137950000D03*
X235325000Y-133450000D03*
%TD*%
D40*
%TO.C,C603*%
X203057500Y-136700000D03*
X204017500Y-136700000D03*
%TD*%
M02*
