%TF.GenerationSoftware,KiCad,Pcbnew,9.0.1+1*%
%TF.CreationDate,2025-09-19T07:31:43+00:00*%
%TF.ProjectId,ZSWatch-Watch-DevKit,5a535761-7463-4682-9d57-617463682d44,+ (Unreleased)*%
%TF.SameCoordinates,Original*%
%TF.FileFunction,Soldermask,Bot*%
%TF.FilePolarity,Negative*%
%FSLAX46Y46*%
G04 Gerber Fmt 4.6, Leading zero omitted, Abs format (unit mm)*
G04 Created by KiCad (PCBNEW 9.0.1+1) date 2025-09-19 07:31:43*
%MOMM*%
%LPD*%
G01*
G04 APERTURE LIST*
G04 Aperture macros list*
%AMRoundRect*
0 Rectangle with rounded corners*
0 $1 Rounding radius*
0 $2 $3 $4 $5 $6 $7 $8 $9 X,Y pos of 4 corners*
0 Add a 4 corners polygon primitive as box body*
4,1,4,$2,$3,$4,$5,$6,$7,$8,$9,$2,$3,0*
0 Add four circle primitives for the rounded corners*
1,1,$1+$1,$2,$3*
1,1,$1+$1,$4,$5*
1,1,$1+$1,$6,$7*
1,1,$1+$1,$8,$9*
0 Add four rect primitives between the rounded corners*
20,1,$1+$1,$2,$3,$4,$5,0*
20,1,$1+$1,$4,$5,$6,$7,0*
20,1,$1+$1,$6,$7,$8,$9,0*
20,1,$1+$1,$8,$9,$2,$3,0*%
G04 Aperture macros list end*
%ADD10R,1.700000X1.700000*%
%ADD11C,1.700000*%
%ADD12C,2.500000*%
%ADD13C,0.650000*%
%ADD14O,0.950000X0.650000*%
%ADD15O,0.800000X1.400000*%
%ADD16RoundRect,0.250000X0.450000X-0.262500X0.450000X0.262500X-0.450000X0.262500X-0.450000X-0.262500X0*%
%ADD17RoundRect,0.250000X0.262500X0.450000X-0.262500X0.450000X-0.262500X-0.450000X0.262500X-0.450000X0*%
G04 APERTURE END LIST*
D10*
%TO.C,X508*%
X200900000Y-120700000D03*
D11*
X200900000Y-118160000D03*
%TD*%
D10*
%TO.C,X503*%
X175100000Y-175400000D03*
D11*
X175100000Y-177940000D03*
%TD*%
D12*
%TO.C,REF\u002A\u002A*%
X205000000Y-157000000D03*
%TD*%
D10*
%TO.C,X610*%
X211500000Y-156600000D03*
D11*
X211500000Y-159140000D03*
%TD*%
D10*
%TO.C,X403*%
X163200000Y-172220000D03*
D11*
X163200000Y-174760000D03*
X163200000Y-177300000D03*
X163200000Y-179840000D03*
%TD*%
D10*
%TO.C,X504*%
X194800000Y-172490000D03*
D11*
X194800000Y-175030000D03*
X194800000Y-177570000D03*
X194800000Y-180110000D03*
%TD*%
D10*
%TO.C,X606*%
X225700000Y-159640000D03*
D11*
X225700000Y-157100000D03*
%TD*%
D10*
%TO.C,X401*%
X221865000Y-116500000D03*
D11*
X219325000Y-116500000D03*
%TD*%
D10*
%TO.C,X501*%
X229200000Y-179500000D03*
D11*
X226660000Y-179500000D03*
%TD*%
D10*
%TO.C,X502*%
X181500000Y-169980000D03*
D11*
X181500000Y-172520000D03*
X181500000Y-175060000D03*
X181500000Y-177600000D03*
X181500000Y-180140000D03*
%TD*%
D10*
%TO.C,X506*%
X237840000Y-179500000D03*
D11*
X235300000Y-179500000D03*
%TD*%
D10*
%TO.C,X607*%
X209600000Y-130525000D03*
D11*
X209600000Y-133065000D03*
%TD*%
D10*
%TO.C,X505*%
X219340000Y-179500000D03*
D11*
X216800000Y-179500000D03*
%TD*%
D10*
%TO.C,X604*%
X255700000Y-132270000D03*
D11*
X255700000Y-134810000D03*
X255700000Y-137350000D03*
%TD*%
D10*
%TO.C,X507*%
X247300000Y-179500000D03*
D11*
X244760000Y-179500000D03*
%TD*%
D13*
%TO.C,X603*%
X250400000Y-122560000D03*
D14*
X243200000Y-122560000D03*
D15*
X251290000Y-115360000D03*
X250930000Y-121310000D03*
X242670000Y-121310000D03*
X242310000Y-115360000D03*
%TD*%
D10*
%TO.C,X609*%
X208975000Y-148700000D03*
D11*
X206435000Y-148700000D03*
%TD*%
D12*
%TO.C,REF\u002A\u002A*%
X163000000Y-157000000D03*
%TD*%
%TO.C,REF\u002A\u002A*%
X205000000Y-128000000D03*
%TD*%
D10*
%TO.C,X510*%
X203200000Y-177260000D03*
D11*
X203200000Y-179800000D03*
%TD*%
D10*
%TO.C,X605*%
X218500000Y-149050000D03*
D11*
X218500000Y-151590000D03*
X218500000Y-154130000D03*
X218500000Y-156670000D03*
X218500000Y-159210000D03*
X218500000Y-161750000D03*
%TD*%
D12*
%TO.C,REF\u002A\u002A*%
X163000000Y-128000000D03*
%TD*%
D10*
%TO.C,X602*%
X243300000Y-141900000D03*
D11*
X240760000Y-141900000D03*
%TD*%
D16*
%TO.C,R607*%
X248600000Y-138512500D03*
X248600000Y-136687500D03*
%TD*%
%TO.C,R611*%
X252600000Y-138512500D03*
X252600000Y-136687500D03*
%TD*%
%TO.C,R608*%
X250600000Y-138512500D03*
X250600000Y-136687500D03*
%TD*%
D17*
%TO.C,R609*%
X253412500Y-128000000D03*
X251587500Y-128000000D03*
%TD*%
%TO.C,R610*%
X253312500Y-125800000D03*
X251487500Y-125800000D03*
%TD*%
M02*
