M48
; DRILL file {KiCad 9.0.1+1} date 2025-09-19T07:31:46+0000
; FORMAT={-:-/ absolute / metric / decimal}
; #@! TF.CreationDate,2025-09-19T07:31:46+00:00
; #@! TF.GenerationSoftware,Kicad,Pcbnew,9.0.1+1
; #@! TF.FileFunction,Plated,1,4,PTH
FMAT,2
METRIC
; #@! TA.AperFunction,Plated,PTH,ViaDrill
T1C0.250
; #@! TA.AperFunction,Plated,PTH,ComponentDrill
T2C0.250
; #@! TA.AperFunction,Plated,PTH,ComponentDrill
T3C0.500
; #@! TA.AperFunction,Plated,PTH,ComponentDrill
T4C1.000
%
G90
G05
T1
X162.025Y-121.325
X163.1Y-117.75
X163.1Y-163.75
X165.9Y-173.02
X167.0Y-171.4
X167.0Y-176.6
X168.3Y-147.7
X168.3Y-166.1
X168.4Y-168.25
X168.485Y-171.9
X168.485Y-175.3
X170.7Y-173.575
X171.347Y-140.7
X171.347Y-141.7
X171.347Y-143.3
X171.647Y-142.2
X171.647Y-142.8
X172.147Y-144.0
X187.025Y-123.4
X188.1Y-163.75
X188.2Y-123.9
X189.2Y-166.9
X193.8Y-151.3
X193.9Y-132.1
X198.587Y-134.5
X198.587Y-135.6
X199.188Y-134.0
X199.188Y-135.1
X199.362Y-139.2
X199.987Y-136.7
X201.4Y-145.137
X202.295Y-134.6
X202.295Y-137.3
X204.1Y-141.1
X204.1Y-142.1
X204.5Y-140.6
X204.5Y-141.6
X204.5Y-142.7
X204.587Y-136.7
X205.7Y-145.137
X205.835Y-174.265
X205.9Y-175.0
X206.08Y-176.22
X206.275Y-119.5
X206.3Y-137.3
X207.8Y-120.12
X208.1Y-139.8
X208.28Y-119.5
X208.812Y-146.088
X208.98Y-144.9
X209.1Y-122.35
X209.1Y-174.4
X210.5Y-146.4
X210.6Y-175.8
X210.725Y-169.8
X211.468Y-174.775
X211.8Y-171.8
X213.4Y-119.9
X213.5Y-175.3
X213.7Y-122.9
X216.832Y-175.332
X217.697Y-122.9
X218.6Y-169.8
X219.1Y-171.8
X219.6Y-173.6
X219.7Y-141.1
X219.8Y-142.7
X219.879Y-126.138
X220.387Y-126.138
X220.794Y-120.819
X221.18Y-174.68
X221.4Y-141.6
X221.429Y-120.819
X222.064Y-122.063
X222.079Y-123.58
X223.1Y-142.1
X223.207Y-121.38
X223.3Y-140.6
X223.9Y-165.6
X224.1Y-119.6
X224.8Y-164.7
X225.0Y-150.5
X225.0Y-151.6
X225.06Y-119.0
X225.3Y-151.1
X225.3Y-152.2
X225.638Y-120.662
X225.7Y-128.38
X225.7Y-174.2
X226.2Y-119.8
X226.9Y-127.1
X226.9Y-166.9
X227.2Y-169.8
X228.4Y-119.8
X228.5Y-171.8
X228.677Y-124.869
X228.679Y-124.076
X229.1Y-148.5
X230.391Y-122.145
X230.479Y-126.138
X230.6Y-158.3
X230.7Y-149.7
X230.991Y-122.145
X231.0Y-172.9
X231.4Y-155.76
X231.647Y-126.1
X232.2Y-153.22
X232.8Y-154.88
X233.5Y-157.65
X234.7Y-160.8
X234.845Y-173.755
X235.0Y-123.749
X235.7Y-174.6
X235.86Y-153.9
X235.9Y-125.0
X236.0Y-160.8
X236.312Y-169.8
X236.62Y-175.4
X236.8Y-116.9
X236.8Y-118.5
X236.9Y-164.7
X237.081Y-154.351
X237.2Y-160.8
X237.5Y-149.1
X237.8Y-127.7
X237.812Y-171.8
X237.9Y-162.25
X238.3Y-149.65
X238.4Y-128.3
X238.5Y-153.9
X238.8Y-168.0
X239.3Y-163.2
X239.3Y-164.8
X240.2Y-173.975
X240.6Y-129.4
X240.6Y-130.7
X240.6Y-131.8
X240.8Y-118.0
X241.0Y-174.6
X241.6Y-152.2
X242.6Y-154.6
X242.8Y-175.2
X243.275Y-134.4
X243.3Y-169.8
X243.4Y-152.4
X243.575Y-145.825
X244.1Y-155.8
X244.3Y-122.3
X244.4Y-137.95
X244.4Y-171.8
X244.55Y-125.1
X244.55Y-135.0
X244.645Y-149.1
X244.8Y-120.4
X245.05Y-124.65
X245.05Y-136.575
X245.2Y-155.8
X245.3Y-120.8
X245.6Y-124.2
X245.6Y-132.8
X245.745Y-150.2
X245.745Y-154.6
X245.75Y-151.295
X245.774Y-145.6
X245.8Y-122.3
X245.813Y-149.193
X246.4Y-142.1
X246.4Y-168.5
X246.4Y-173.7
X246.4Y-174.7
X246.55Y-122.565
X246.8Y-126.1
X246.881Y-148.023
X246.913Y-146.993
X246.913Y-153.593
X247.0Y-151.325
X247.074Y-128.069
X247.4Y-142.1
X247.4Y-156.1
X247.5Y-122.2
X247.5Y-169.0
X247.8Y-120.4
X247.894Y-124.0
X247.945Y-153.5
X247.945Y-146.9
X247.945Y-148.0
X247.974Y-155.8
X248.0Y-149.7
X248.3Y-122.3
X248.5Y-131.8
X248.5Y-152.3
X248.5Y-156.1
X248.55Y-125.8
X248.8Y-120.6
X249.045Y-154.6
X249.05Y-128.0
X249.081Y-147.977
X249.3Y-120.3
X249.55Y-122.4
X249.6Y-131.1
X249.6Y-149.1
X249.78Y-124.0
X250.15Y-153.505
X250.181Y-154.577
X250.2Y-149.4
X250.7Y-129.4
X250.7Y-152.2
X250.7Y-156.1
X251.226Y-132.3
X251.248Y-124.152
X251.3Y-149.4
X251.65Y-178.8
X251.69Y-175.0
X251.7Y-171.5
X251.8Y-152.2
X251.8Y-156.1
X252.319Y-154.577
X252.77Y-169.7
X252.9Y-171.625
X252.9Y-175.125
X252.9Y-176.775
X253.3Y-161.39
X253.325Y-154.475
X253.412Y-129.3
X253.419Y-153.477
X253.55Y-170.5
X253.55Y-173.1
X254.0Y-151.8
X254.4Y-173.9
X254.7Y-140.4
X255.3Y-159.3
X256.3Y-146.35
X256.3Y-155.15
X256.6Y-158.7
X256.8Y-178.2
X257.2Y-165.2
T2
X224.388Y-122.83
X224.388Y-123.83
X224.388Y-124.83
X225.388Y-122.83
X225.388Y-123.83
X225.388Y-124.83
X226.388Y-122.83
X226.388Y-123.83
X226.388Y-124.83
T4
X163.2Y-172.22
X163.2Y-174.76
X163.2Y-177.3
X163.2Y-179.84
X175.1Y-175.4
X175.1Y-177.94
X181.5Y-169.98
X181.5Y-172.52
X181.5Y-175.06
X181.5Y-177.6
X181.5Y-180.14
X194.8Y-172.49
X194.8Y-175.03
X194.8Y-177.57
X194.8Y-180.11
X200.9Y-118.16
X200.9Y-120.7
X203.2Y-177.26
X203.2Y-179.8
X206.435Y-148.7
X208.975Y-148.7
X209.6Y-130.525
X209.6Y-133.065
X211.5Y-156.6
X211.5Y-159.14
X216.8Y-179.5
X218.5Y-149.05
X218.5Y-151.59
X218.5Y-154.13
X218.5Y-156.67
X218.5Y-159.21
X218.5Y-161.75
X219.325Y-116.5
X219.34Y-179.5
X221.865Y-116.5
X225.7Y-157.1
X225.7Y-159.64
X226.66Y-179.5
X229.2Y-179.5
X235.3Y-179.5
X237.84Y-179.5
X240.76Y-141.9
X243.3Y-141.9
X244.76Y-179.5
X247.3Y-179.5
X255.7Y-132.27
X255.7Y-134.81
X255.7Y-137.35
T3
G00X242.31Y-115.66
M15
G01X242.31Y-115.06
M16
G05
G00X242.67Y-121.61
M15
G01X242.67Y-121.01
M16
G05
G00X250.93Y-121.61
M15
G01X250.93Y-121.01
M16
G05
G00X251.29Y-115.66
M15
G01X251.29Y-115.06
M16
G05
M30
